<?xml version="1.0" encoding="UTF-8"?>
<svg id="Layer_1" data-name="Layer 1" xmlns="http://www.w3.org/2000/svg" viewBox="0 0 20.8 27.94">
  <defs>
    <style>
      .cls-1 {
        stroke-width: 0px;
      }
    </style>
  </defs>
  <path class="cls-1" d="m10.3,11.6c0,.2,0,.6-.1,1-.2.7-1,1-1.6.5-.3-.2-.6-.5-.8-.9-1.7-2.8-3.5-5.6-5.2-8.4-.1-.2-.3-.5-.4-.7-.2-.4-.2-.8.1-1.2.2-.2.5-.4.8-.5.9-.4,1.8-.7,2.7-1,.7-.2,1.5-.4,2.3-.4h.8c.4.1.7.4.7.8.1,1.2.2,2.3.3,3.5.1,1.6.2,3.3.3,4.9.1.9.1,1.6.1,2.4Z"/>
  <path class="cls-1" d="m12.4,19.4c0-.8.6-1.4,1.3-1.3.3,0,.5.1.8.2,1.6.5,3.3,1.1,4.9,1.6.2.1.3.1.5.2.5.2.8.7.7,1.2-.1.3-.2.6-.4.9-.7,1.2-1.5,2.2-2.5,3.1-.2.2-.4.3-.7.4-.5.2-.8.1-1.1-.4-.5-.7-.9-1.5-1.4-2.2-.7-1.1-1.3-2.1-2-3.2,0-.1-.1-.3-.1-.5Z"/>
  <path class="cls-1" d="m0,17.2c0-.9.1-1.7.3-2.6.1-.3.2-.5.3-.7.3-.4.7-.5,1.1-.4.9.3,1.8.7,2.8,1.1s2.1.9,3.1,1.3c.9.4,1,1.4.6,1.9-.2.2-.4.4-.7.5-1.9.7-3.9,1.2-5.8,1.8-.1,0-.2,0-.3.1-.5.1-.9-.2-1.1-.7-.1-.4-.2-.8-.2-1.2-.1-.4-.1-.8-.1-1.1Z"/>
  <path class="cls-1" d="m10.4,23.5v3.5c0,.5-.4.9-.8.9-.4.1-.7,0-1.1-.1-1.3-.3-2.5-.7-3.6-1.4-.3-.2-.6-.4-.8-.7-.2-.3-.1-.6.1-.9.4-.5.8-1,1.2-1.5.6-.7,1.2-1.4,1.7-2,.4-.4.8-.9,1.1-1.4.3-.4.8-.6,1.3-.5s.8.4.9.8v.2c0,1.2,0,2.3,0,3.1Z"/>
  <path class="cls-1" d="m17.2,8.6c.3,0,.6.1.8.3.5.5,1,1,1.4,1.6.5.7.9,1.4,1.2,2.1.1.3.2.6.2.9-.1.4-.3.6-.6.8-.6.2-1.1.3-1.7.4-1.5.4-3,.7-4.5,1.1-.3.1-.7.1-1-.2-.3-.2-.5-.5-.5-.9,0-.3,0-.5.2-.7.7-1,1.5-2,2.2-3,.5-.7.9-1.3,1.4-2,.1-.2.3-.3.4-.4.1,0,.3,0,.5,0Z"/>
</svg>