<?xml version="1.0" encoding="utf-8"?>
<!-- Generator: Adobe Illustrator 27.9.0, SVG Export Plug-In . SVG Version: 6.00 Build 0)  -->
<svg version="1.1" id="Layer_1" xmlns="http://www.w3.org/2000/svg" xmlns:xlink="http://www.w3.org/1999/xlink" x="0px" y="0px"
	 viewBox="0 0 32 31" style="enable-background:new 0 0 32 31;" xml:space="preserve">
<style type="text/css">
	.st0{clip-path:url(#SVGID_00000074418292272577966960000001762838967455925123_);}
	.st1{fill:none;}
</style>
<g>
	<g>
		<g>
			<g>
				<defs>
					<rect id="SVGID_1_" x="3.8" width="25.1" height="30.5"/>
				</defs>
				<clipPath id="SVGID_00000008126796560774839640000000515423084461158035_">
					<use xlink:href="#SVGID_1_"  style="overflow:visible;"/>
				</clipPath>
				<g style="clip-path:url(#SVGID_00000008126796560774839640000000515423084461158035_);">
					<path d="M21.4,21c0.9,1.6,1.9,3.3,2.8,4.9c-4.1,3.2-10.6,3.6-15.4-0.1C3.3,21.6,2.4,14.4,5.3,9.2c3.4-6,9.7-7.3,13.8-6.3
						c-0.1,0.2-2.6,5.3-2.6,5.3s-0.2,0-0.3,0C15,8.3,14.1,8.5,13.1,9c-1.1,0.6-2,1.4-2.6,2.3c-0.7,1-1.1,2.1-1.2,3.3
						c-0.1,1.2,0,2.4,0.5,3.5c0.4,0.9,0.9,1.8,1.7,2.5c1.1,1.1,2.5,1.8,4,2s2.9,0,4.2-0.7c0.5-0.2,0.9-0.5,1.4-0.9
						C21.3,21.2,21.4,21.1,21.4,21z"/>
					<path d="M21.4,6.7c-0.2-0.2-0.5-0.5-0.7-0.7c-0.1-0.1-0.3-0.3-0.4-0.4l-0.1-0.1c0,0,0-0.1,0.1-0.1c0.3-0.5,0.7-0.9,1.1-1.2
						c0.5-0.3,1.2-0.5,1.8-0.5c0.8,0,1.6,0.2,2.2,0.8c0.5,0.4,0.7,0.9,0.8,1.5c0.1,1-0.4,1.8-1.2,2.4c-0.5,0.3-1,0.6-1.6,0.9
						c-0.3,0.2-0.5,0.3-0.8,0.6s-0.3,0.6-0.3,0.6h3.8v1.7h-5.9c0,0,0-0.1,0-0.2c0-0.8,0.1-1.6,0.5-2.4c0.4-0.7,0.9-1.2,1.6-1.6
						c0.5-0.3,1-0.6,1.5-0.9c0.3-0.2,0.5-0.5,0.5-0.9c0-0.3-0.2-0.6-0.6-0.7c-0.8-0.2-1.7,0.1-2.1,0.9C21.6,6.5,21.5,6.6,21.4,6.7z"
						/>
					<path d="M28.8,19.2l-3.2-5.6h-6.4L16,19.2h6.4l3.2,5.5L28.8,19.2z"/>
				</g>
			</g>
		</g>
	</g>
	<rect x="-123.6" y="-1.4" class="st1" width="117.8" height="30.9"/>
</g>
</svg>
