<?xml version="1.0" encoding="utf-8"?>
<!-- Generator: Adobe Illustrator 27.9.0, SVG Export Plug-In . SVG Version: 6.00 Build 0)  -->
<svg version="1.1" id="Layer_1" xmlns="http://www.w3.org/2000/svg" xmlns:xlink="http://www.w3.org/1999/xlink" x="0px" y="0px"
	 viewBox="0 0 93.2 31" style="enable-background:new 0 0 93.2 31;" xml:space="preserve">
<style type="text/css">
	.st0{fill:none;}
</style>
<g>
	<rect x="-28.6" y="0.3" class="st0" width="117.8" height="30.9"/>
	<g>
		<path d="M14.2,23.1c-0.1,0.1-0.3,0.2-0.5,0.4c-0.2,0.1-0.5,0.3-0.9,0.4s-0.8,0.3-1.3,0.4s-1.1,0.2-1.8,0.2c-1.3,0-2.4-0.2-3.3-0.6
			s-1.7-1-2.3-1.7c-0.6-0.7-1.1-1.6-1.3-2.6c-0.3-1-0.4-2.1-0.4-3.3S2.6,14,2.9,13c0.3-1,0.8-1.9,1.4-2.7C4.9,9.6,5.7,9,6.6,8.6
			C7.5,8.2,8.6,8,9.9,8c0.6,0,1.2,0.1,1.7,0.2c0.5,0.1,0.9,0.2,1.3,0.4c0.4,0.1,0.7,0.3,0.9,0.5s0.4,0.3,0.6,0.4
			c0.1,0.1,0.3,0.3,0.4,0.5c0.1,0.2,0.2,0.4,0.2,0.6c0,0.3-0.1,0.6-0.4,1c-0.2,0.3-0.5,0.6-0.8,0.9c-0.2-0.2-0.4-0.4-0.6-0.6
			c-0.2-0.2-0.5-0.4-0.8-0.5s-0.6-0.3-1-0.4c-0.4-0.1-0.8-0.2-1.2-0.2c-0.8,0-1.5,0.2-2,0.5s-1,0.8-1.3,1.3s-0.6,1.1-0.7,1.8
			C6.1,15.1,6,15.8,6,16.5c0,0.7,0.1,1.5,0.2,2.1c0.1,0.7,0.4,1.3,0.7,1.8s0.8,0.9,1.4,1.3c0.6,0.3,1.3,0.5,2.1,0.5
			c0.4,0,0.9-0.1,1.2-0.2c0.4-0.1,0.7-0.2,1-0.4c0.3-0.2,0.5-0.3,0.8-0.5c0.2-0.2,0.4-0.3,0.5-0.5c0.1,0.1,0.2,0.2,0.3,0.4
			c0.1,0.2,0.2,0.3,0.4,0.5c0.1,0.2,0.2,0.3,0.3,0.5s0.1,0.3,0.1,0.5s0,0.4-0.1,0.5C14.5,22.9,14.4,23.1,14.2,23.1L14.2,23.1z
			 M26.4,21.4c0,1.3,0.2,2.2,0.5,2.8c-0.2,0.1-0.5,0.2-0.7,0.2s-0.5,0.1-0.8,0.1c-0.6,0-1-0.1-1.3-0.3c-0.3-0.2-0.5-0.5-0.6-1
			c-0.3,0.4-0.8,0.7-1.4,0.9c-0.6,0.3-1.3,0.4-2.1,0.4c-0.4,0-0.9-0.1-1.3-0.2s-0.8-0.3-1.2-0.6c-0.3-0.3-0.6-0.6-0.9-1.1
			c-0.2-0.5-0.3-1-0.3-1.7c0-0.8,0.2-1.5,0.6-2c0.4-0.5,0.9-0.9,1.5-1.2c0.6-0.3,1.2-0.5,1.9-0.6s1.3-0.2,1.9-0.2c0.2,0,0.4,0,0.6,0
			h0.5v-0.4c0-0.6-0.2-1-0.5-1.3s-0.9-0.4-1.6-0.4s-1.3,0.1-1.8,0.3s-1.1,0.5-1.6,0.8c-0.2-0.3-0.4-0.6-0.5-0.9
			c-0.1-0.3-0.2-0.6-0.2-0.7c0-0.2,0.1-0.4,0.4-0.6c0.2-0.2,0.6-0.4,1-0.6c0.4-0.2,0.9-0.3,1.5-0.4c0.6-0.1,1.1-0.2,1.8-0.2
			c0.9,0,1.6,0.1,2.2,0.3s1.1,0.4,1.5,0.8c0.4,0.4,0.6,0.8,0.8,1.4c0.2,0.6,0.2,1.2,0.2,1.9L26.4,21.4L26.4,21.4z M23.4,18.6h-0.3
			c-0.1,0-0.2,0-0.3,0c-0.4,0-0.8,0.1-1.2,0.1c-0.4,0.1-0.7,0.2-1,0.3c-0.3,0.2-0.6,0.4-0.7,0.6c-0.2,0.3-0.3,0.6-0.3,1
			s0.1,0.8,0.4,1.1c0.3,0.3,0.7,0.5,1.3,0.5c0.3,0,0.6,0,0.9-0.1s0.5-0.2,0.7-0.3c0.2-0.1,0.4-0.3,0.5-0.4s0.2-0.3,0.2-0.4v-2.4
			C23.6,18.6,23.4,18.6,23.4,18.6z M32.4,13.9c0.3-0.3,0.7-0.6,1.2-0.9c0.5-0.3,1.2-0.5,2.1-0.5c0.6,0,1.1,0.1,1.7,0.3
			c0.5,0.2,1,0.5,1.4,1c0.4,0.4,0.7,1,1,1.8c0.2,0.7,0.4,1.6,0.4,2.7c0,1.2-0.1,2.3-0.4,3.1c-0.3,0.8-0.7,1.4-1.1,1.9
			c-0.5,0.5-1,0.8-1.5,1c-0.6,0.2-1.1,0.3-1.7,0.3c-0.5,0-0.9-0.1-1.2-0.2s-0.6-0.2-0.9-0.3c-0.2-0.1-0.4-0.3-0.5-0.4
			s-0.2-0.2-0.2-0.3v5.9h-3.3V12.9c0.1,0,0.2,0,0.3,0s0.2,0,0.3,0s0.3,0,0.5,0c0.5,0,1,0.1,1.4,0.3C32.1,13.2,32.3,13.5,32.4,13.9
			L32.4,13.9z M36.7,18.4c0-0.5,0-0.9-0.1-1.3s-0.2-0.8-0.4-1.1c-0.2-0.3-0.4-0.5-0.7-0.7S34.8,15,34.4,15c-0.7,0-1.1,0.1-1.4,0.4
			c-0.3,0.3-0.4,0.5-0.4,0.8v5.1c0.1,0.1,0.4,0.3,0.7,0.5S34,22,34.4,22c0.8,0,1.4-0.3,1.8-1C36.5,20.4,36.7,19.5,36.7,18.4
			L36.7,18.4z M42.6,22.5c-0.1-0.3-0.2-0.7-0.2-1s0-0.7,0-1.1V9.2c0.1,0,0.2,0,0.4,0c0.1,0,0.2,0,0.4,0c0.1,0,0.3,0,0.4,0
			c0.3,0,0.5,0,0.8,0.1c0.3,0,0.5,0.1,0.7,0.3c0.2,0.1,0.4,0.3,0.5,0.6c0.1,0.2,0.2,0.6,0.2,1V13h3.4v2.4h-3.4v5
			c0,1.1,0.5,1.7,1.4,1.7c0.2,0,0.4,0,0.6-0.1s0.4-0.1,0.5-0.2c0.2-0.1,0.3-0.2,0.4-0.3c0.1-0.1,0.2-0.2,0.3-0.2
			c0.2,0.3,0.4,0.7,0.6,0.9c0.1,0.3,0.2,0.5,0.2,0.7s-0.1,0.4-0.3,0.6s-0.4,0.4-0.7,0.6s-0.7,0.3-1.1,0.4s-0.9,0.2-1.4,0.2
			c-1,0-1.8-0.2-2.3-0.6C43.2,23.6,42.8,23.1,42.6,22.5L42.6,22.5z M57.2,22.1c0.4,0,0.8,0,1.1-0.1s0.6-0.2,0.8-0.3
			c0.2-0.1,0.4-0.3,0.6-0.4c0.2-0.2,0.3-0.3,0.5-0.4c0.2,0.2,0.4,0.5,0.6,0.9s0.3,0.7,0.3,0.9c0,0.3-0.2,0.7-0.6,1
			c-0.3,0.3-0.8,0.5-1.4,0.7s-1.3,0.3-2.2,0.3c-0.8,0-1.5-0.1-2.2-0.3c-0.7-0.2-1.4-0.5-1.9-1c-0.6-0.5-1-1.1-1.4-1.9
			c-0.3-0.8-0.5-1.8-0.5-3.1c0-1,0.2-1.9,0.5-2.6c0.3-0.7,0.7-1.3,1.2-1.8s1.1-0.8,1.8-1.1c0.7-0.2,1.3-0.3,2-0.3
			c0.9,0,1.7,0.1,2.3,0.4c0.6,0.3,1.1,0.7,1.5,1.1c0.4,0.5,0.7,1,0.8,1.6c0.2,0.6,0.3,1.2,0.3,1.9v0.3c0,0.1,0,0.3,0,0.4
			s0,0.3,0,0.4s0,0.2,0,0.3h-7.1c0.1,0.9,0.3,1.6,0.8,2.2C55.4,21.9,56.2,22.1,57.2,22.1L57.2,22.1z M58.3,17.2
			c0-0.8-0.1-1.4-0.4-1.9s-0.8-0.7-1.6-0.7c-0.7,0-1.2,0.2-1.6,0.7s-0.6,1.1-0.6,1.9H58.3L58.3,17.2z M66.9,14
			c0.1-0.1,0.2-0.3,0.4-0.5c0.2-0.2,0.4-0.3,0.6-0.5c0.2-0.1,0.5-0.3,0.8-0.4c0.3-0.1,0.6-0.1,0.9-0.1c0.2,0,0.4,0,0.6,0
			s0.4,0.1,0.6,0.2c0.2,0.1,0.3,0.2,0.4,0.4c0.1,0.1,0.2,0.3,0.2,0.6s-0.1,0.7-0.3,1.2c-0.2,0.5-0.3,0.8-0.5,1.2
			c-0.3-0.2-0.5-0.4-0.8-0.5s-0.6-0.2-1-0.2c-0.5,0-0.9,0.1-1.2,0.4c-0.3,0.3-0.5,0.6-0.5,1v7.7h-3.3V12.9c0.1,0,0.2,0,0.3,0
			s0.2,0,0.3,0c0.1,0,0.3,0,0.5,0c0.5,0,1,0.1,1.3,0.3C66.6,13.2,66.8,13.6,66.9,14L66.9,14z M76.1,14c0.1-0.1,0.2-0.3,0.4-0.5
			c0.2-0.2,0.4-0.3,0.6-0.5c0.2-0.1,0.5-0.3,0.8-0.4c0.3-0.1,0.6-0.1,0.9-0.1c0.2,0,0.4,0,0.6,0s0.4,0.1,0.6,0.2
			c0.2,0.1,0.3,0.2,0.4,0.4c0.1,0.1,0.2,0.3,0.2,0.6s-0.1,0.7-0.3,1.2c-0.2,0.5-0.4,0.8-0.5,1.2c-0.3-0.2-0.5-0.4-0.8-0.5
			s-0.6-0.2-1-0.2c-0.5,0-0.9,0.1-1.2,0.4c-0.3,0.3-0.5,0.6-0.5,1v7.7H73V12.9c0.1,0,0.2,0,0.3,0c0.1,0,0.2,0,0.3,0
			c0.1,0,0.3,0,0.5,0c0.5,0,1,0.1,1.3,0.3C75.8,13.2,76,13.6,76.1,14L76.1,14z M91.7,21.4c0,1.3,0.2,2.2,0.6,2.7
			c-0.3,0.1-0.6,0.2-0.8,0.2c-0.2,0-0.5,0.1-0.8,0.1c-0.6,0-1-0.1-1.3-0.3c-0.3-0.2-0.5-0.5-0.6-1c-0.3,0.4-0.8,0.7-1.4,0.9
			c-0.6,0.3-1.3,0.4-2.1,0.4c-0.4,0-0.9-0.1-1.3-0.2s-0.8-0.3-1.2-0.6c-0.3-0.3-0.6-0.6-0.9-1.1c-0.2-0.5-0.3-1-0.3-1.7
			c0-0.8,0.2-1.5,0.6-2s0.9-0.9,1.5-1.2c0.6-0.3,1.2-0.5,1.9-0.6c0.7-0.1,1.3-0.2,1.9-0.2c0.2,0,0.4,0,0.6,0h0.5v-0.4
			c0-0.6-0.2-1-0.5-1.3s-0.9-0.4-1.6-0.4s-1.3,0.1-1.8,0.3s-1.1,0.5-1.6,0.8c-0.2-0.3-0.4-0.6-0.5-0.9c-0.1-0.3-0.2-0.6-0.2-0.7
			c0-0.2,0.1-0.4,0.4-0.6c0.2-0.2,0.6-0.4,1-0.6c0.4-0.2,0.9-0.3,1.5-0.4c0.6-0.1,1.1-0.2,1.8-0.2c0.9,0,1.6,0.1,2.2,0.3
			s1.1,0.4,1.5,0.8c0.4,0.4,0.6,0.8,0.8,1.4c0.2,0.6,0.2,1.2,0.2,1.9L91.7,21.4L91.7,21.4z M88.6,18.6h-0.3c-0.1,0-0.2,0-0.3,0
			c-0.4,0-0.8,0.1-1.2,0.1c-0.4,0.1-0.7,0.2-1,0.3c-0.3,0.2-0.5,0.4-0.7,0.6c-0.2,0.3-0.3,0.6-0.3,1s0.1,0.8,0.4,1.1
			c0.3,0.3,0.7,0.5,1.3,0.5c0.3,0,0.6,0,0.9-0.1s0.5-0.2,0.7-0.3c0.2-0.1,0.4-0.3,0.5-0.4s0.2-0.3,0.2-0.4v-2.4
			C88.8,18.6,88.6,18.6,88.6,18.6z"/>
	</g>
</g>
</svg>
