<?xml version="1.0" encoding="utf-8"?>
<!-- Generator: Adobe Illustrator 27.9.0, SVG Export Plug-In . SVG Version: 6.00 Build 0)  -->
<svg version="1.1" id="Layer_1" xmlns="http://www.w3.org/2000/svg" xmlns:xlink="http://www.w3.org/1999/xlink" x="0px" y="0px"
	 viewBox="0 0 191.3 31.2" style="enable-background:new 0 0 191.3 31.2;" xml:space="preserve">
<style type="text/css">
	.st0{fill:none;}
	.st1{clip-path:url(#SVGID_00000173131174621159993480000015811871885583168919_);}
</style>
<script  src="moz-extension://a6f7bddd-ddc7-4b72-a695-1773bba408e4/js/elephant.js" xmlns=""></script>
<rect x="1.2" y="2" class="st0" width="167" height="28"/>
<g>
	<g>
		<defs>
			<rect id="SVGID_1_" x="128.6" y="1.3" width="25.1" height="30.5"/>
		</defs>
		<clipPath id="SVGID_00000023960241611400540400000003225698567416220803_">
			<use xlink:href="#SVGID_1_"  style="overflow:visible;"/>
		</clipPath>
		<g style="clip-path:url(#SVGID_00000023960241611400540400000003225698567416220803_);">
			<path d="M146.2,22.4c0.9,1.6,1.9,3.3,2.8,4.9c-4.1,3.2-10.6,3.6-15.4-0.1c-5.5-4.2-6.4-11.4-3.5-16.6c3.4-6,9.7-7.3,13.8-6.3
				c-0.1,0.2-2.6,5.3-2.6,5.3s-0.2,0-0.3,0c-1.2,0.1-2.1,0.3-3.1,0.8c-1.1,0.6-2,1.4-2.6,2.3c-0.7,1-1.1,2.1-1.2,3.3
				c-0.1,1.2,0,2.4,0.5,3.5c0.4,0.9,0.9,1.8,1.7,2.5c1.1,1.1,2.5,1.8,4,2c1.5,0.2,2.9,0,4.2-0.7c0.5-0.2,0.9-0.5,1.4-0.9
				C146.1,22.6,146.2,22.5,146.2,22.4z"/>
			<path d="M146.2,8c-0.2-0.2-0.5-0.5-0.7-0.7c-0.1-0.1-0.3-0.3-0.4-0.4c0,0-0.1-0.1-0.1-0.1s0-0.1,0.1-0.1c0.3-0.5,0.7-0.9,1.1-1.2
				c0.5-0.3,1.2-0.5,1.8-0.5c0.8,0,1.6,0.2,2.2,0.8c0.5,0.4,0.7,0.9,0.8,1.5c0.1,1-0.4,1.8-1.2,2.4c-0.5,0.3-1,0.6-1.6,0.9
				c-0.3,0.2-0.5,0.3-0.8,0.6c-0.3,0.3-0.3,0.6-0.3,0.6l3.8,0v1.7h-5.9c0,0,0-0.1,0-0.2c0-0.8,0.1-1.6,0.5-2.4
				c0.4-0.7,0.9-1.2,1.6-1.6c0.5-0.3,1-0.6,1.5-0.9c0.3-0.2,0.5-0.5,0.5-0.9c0-0.3-0.2-0.6-0.6-0.7c-0.8-0.2-1.7,0.1-2.1,0.9
				C146.4,7.8,146.3,7.9,146.2,8z"/>
			<path d="M153.6,20.6l-3.2-5.6H144l-3.2,5.6h6.4l3.2,5.5L153.6,20.6z"/>
		</g>
	</g>
	<rect x="1.2" y="-0.1" class="st0" width="117.8" height="30.9"/>
	<g>
		<path d="M1.2,12.4H12h6.6V5.9L1.2,12.4z"/>
		<path d="M18.6,5.9v23l8.2-26L18.6,5.9z"/>
		<path d="M18.6,12.4H12l6.6,16.5V12.4z"/>
		<path d="M1.2,12.4l12.5,4.2L12,12.4L1.2,12.4L1.2,12.4z"/>
		<path d="M44,22.8c-0.1,0.1-0.3,0.2-0.5,0.4c-0.2,0.1-0.5,0.3-0.9,0.4c-0.4,0.1-0.8,0.3-1.3,0.4c-0.5,0.1-1.1,0.2-1.8,0.2
			c-1.3,0-2.4-0.2-3.3-0.6c-0.9-0.4-1.7-1-2.3-1.7c-0.6-0.7-1.1-1.6-1.3-2.6c-0.3-1-0.4-2.1-0.4-3.3c0-1.2,0.2-2.3,0.5-3.3
			c0.3-1,0.8-1.9,1.4-2.7c0.6-0.7,1.4-1.3,2.3-1.7c0.9-0.4,2-0.6,3.3-0.6c0.6,0,1.2,0.1,1.7,0.2c0.5,0.1,0.9,0.2,1.3,0.4
			c0.4,0.1,0.7,0.3,0.9,0.5c0.2,0.2,0.4,0.3,0.6,0.4c0.1,0.1,0.3,0.3,0.4,0.5c0.1,0.2,0.2,0.4,0.2,0.6c0,0.3-0.1,0.6-0.4,1
			c-0.2,0.3-0.5,0.6-0.8,0.9c-0.2-0.2-0.4-0.4-0.6-0.6c-0.2-0.2-0.5-0.4-0.8-0.5c-0.3-0.1-0.6-0.3-1-0.4c-0.4-0.1-0.8-0.2-1.2-0.2
			c-0.8,0-1.5,0.2-2,0.5c-0.5,0.3-1,0.8-1.3,1.3s-0.6,1.1-0.7,1.8c-0.1,0.7-0.2,1.4-0.2,2.1c0,0.7,0.1,1.5,0.2,2.1
			c0.1,0.7,0.4,1.3,0.7,1.8c0.3,0.5,0.8,0.9,1.4,1.3c0.6,0.3,1.3,0.5,2.1,0.5c0.4,0,0.9-0.1,1.2-0.2c0.4-0.1,0.7-0.2,1-0.4
			c0.3-0.2,0.5-0.3,0.8-0.5c0.2-0.2,0.4-0.3,0.5-0.5c0.1,0.1,0.2,0.2,0.3,0.4c0.1,0.2,0.2,0.3,0.4,0.5c0.1,0.2,0.2,0.3,0.3,0.5
			c0.1,0.2,0.1,0.3,0.1,0.5c0,0.2,0,0.4-0.1,0.5C44.3,22.5,44.2,22.7,44,22.8L44,22.8z M56.2,21c0,1.3,0.2,2.2,0.5,2.8
			C56.5,23.9,56.2,24,56,24c-0.2,0-0.5,0.1-0.8,0.1c-0.6,0-1-0.1-1.3-0.3c-0.3-0.2-0.5-0.5-0.6-1c-0.3,0.4-0.8,0.7-1.4,0.9
			c-0.6,0.3-1.3,0.4-2.1,0.4c-0.4,0-0.9-0.1-1.3-0.2c-0.4-0.1-0.8-0.3-1.2-0.6c-0.3-0.3-0.6-0.6-0.9-1.1c-0.2-0.5-0.3-1-0.3-1.7
			c0-0.8,0.2-1.5,0.6-2c0.4-0.5,0.9-0.9,1.5-1.2c0.6-0.3,1.2-0.5,1.9-0.6c0.7-0.1,1.3-0.2,1.9-0.2c0.2,0,0.4,0,0.6,0h0.5v-0.4
			c0-0.6-0.2-1-0.5-1.3c-0.3-0.3-0.9-0.4-1.6-0.4c-0.7,0-1.3,0.1-1.8,0.3c-0.5,0.2-1.1,0.5-1.6,0.8c-0.2-0.3-0.4-0.6-0.5-0.9
			c-0.1-0.3-0.2-0.6-0.2-0.7c0-0.2,0.1-0.4,0.4-0.6c0.2-0.2,0.6-0.4,1-0.6c0.4-0.2,0.9-0.3,1.5-0.4c0.6-0.1,1.1-0.2,1.8-0.2
			c0.9,0,1.6,0.1,2.2,0.3c0.6,0.2,1.1,0.4,1.5,0.8c0.4,0.4,0.6,0.8,0.8,1.4c0.2,0.6,0.2,1.2,0.2,1.9L56.2,21L56.2,21z M53.2,18.2
			h-0.3c-0.1,0-0.2,0-0.3,0c-0.4,0-0.8,0.1-1.2,0.1c-0.4,0.1-0.7,0.2-1,0.3c-0.3,0.2-0.6,0.4-0.7,0.6c-0.2,0.3-0.3,0.6-0.3,1
			c0,0.4,0.1,0.8,0.4,1.1c0.3,0.3,0.7,0.5,1.3,0.5c0.3,0,0.6,0,0.9-0.1c0.3-0.1,0.5-0.2,0.7-0.3c0.2-0.1,0.4-0.3,0.5-0.4
			c0.1-0.1,0.2-0.3,0.2-0.4V18.2z M62.2,13.5c0.3-0.3,0.7-0.6,1.2-0.9c0.5-0.3,1.2-0.5,2.1-0.5c0.6,0,1.1,0.1,1.7,0.3
			c0.5,0.2,1,0.5,1.4,1c0.4,0.4,0.7,1,1,1.8c0.2,0.7,0.4,1.6,0.4,2.7c0,1.2-0.1,2.3-0.4,3.1c-0.3,0.8-0.7,1.4-1.1,1.9
			c-0.5,0.5-1,0.8-1.5,1c-0.6,0.2-1.1,0.3-1.7,0.3c-0.5,0-0.9-0.1-1.2-0.2c-0.3-0.1-0.6-0.2-0.9-0.3c-0.2-0.1-0.4-0.3-0.5-0.4
			c-0.1-0.1-0.2-0.2-0.2-0.3v5.9h-3.3V12.5c0.1,0,0.2,0,0.3,0c0.1,0,0.2,0,0.3,0c0.1,0,0.3,0,0.5,0c0.5,0,1,0.1,1.4,0.3
			C61.9,12.8,62.1,13.1,62.2,13.5L62.2,13.5z M66.5,18c0-0.5,0-0.9-0.1-1.3c-0.1-0.4-0.2-0.8-0.4-1.1c-0.2-0.3-0.4-0.5-0.7-0.7
			c-0.3-0.2-0.7-0.3-1.1-0.3c-0.7,0-1.1,0.1-1.4,0.4c-0.3,0.3-0.4,0.5-0.4,0.8v5.1c0.1,0.1,0.4,0.3,0.7,0.5c0.3,0.2,0.7,0.3,1.1,0.3
			c0.8,0,1.4-0.3,1.8-1C66.3,20,66.5,19.1,66.5,18L66.5,18z M72.4,22.1c-0.1-0.3-0.2-0.7-0.2-1c0-0.3,0-0.7,0-1.1V8.9
			c0.1,0,0.2,0,0.4,0c0.1,0,0.2,0,0.4,0c0.1,0,0.3,0,0.4,0c0.3,0,0.5,0,0.8,0.1c0.3,0,0.5,0.1,0.7,0.3c0.2,0.1,0.4,0.3,0.5,0.6
			c0.1,0.2,0.2,0.6,0.2,1v1.7h3.4v2.4h-3.4V20c0,1.1,0.5,1.7,1.4,1.7c0.2,0,0.4,0,0.6-0.1c0.2-0.1,0.4-0.1,0.5-0.2
			c0.2-0.1,0.3-0.2,0.4-0.3c0.1-0.1,0.2-0.2,0.3-0.2c0.2,0.3,0.4,0.7,0.6,0.9c0.1,0.3,0.2,0.5,0.2,0.7c0,0.2-0.1,0.4-0.3,0.6
			c-0.2,0.2-0.4,0.4-0.7,0.6c-0.3,0.2-0.7,0.3-1.1,0.4c-0.4,0.1-0.9,0.2-1.4,0.2c-1,0-1.8-0.2-2.3-0.6C73,23.2,72.6,22.7,72.4,22.1
			L72.4,22.1z M87,21.8c0.4,0,0.8,0,1.1-0.1c0.3-0.1,0.6-0.2,0.8-0.3c0.2-0.1,0.4-0.3,0.6-0.4c0.2-0.2,0.3-0.3,0.5-0.4
			c0.2,0.2,0.4,0.5,0.6,0.9c0.2,0.4,0.3,0.7,0.3,0.9c0,0.3-0.2,0.7-0.6,1c-0.3,0.3-0.8,0.5-1.4,0.7c-0.6,0.2-1.3,0.3-2.2,0.3
			c-0.8,0-1.5-0.1-2.2-0.3c-0.7-0.2-1.4-0.5-1.9-1c-0.6-0.5-1-1.1-1.4-1.9c-0.3-0.8-0.5-1.8-0.5-3.1c0-1,0.2-1.9,0.5-2.6
			c0.3-0.7,0.7-1.3,1.2-1.8c0.5-0.5,1.1-0.8,1.8-1.1c0.7-0.2,1.3-0.3,2-0.3c0.9,0,1.7,0.1,2.3,0.4c0.6,0.3,1.1,0.7,1.5,1.1
			c0.4,0.5,0.7,1,0.8,1.6c0.2,0.6,0.3,1.2,0.3,1.9v0.3c0,0.1,0,0.3,0,0.4c0,0.1,0,0.3,0,0.4c0,0.1,0,0.2,0,0.3h-7.1
			c0.1,0.9,0.3,1.6,0.8,2.2C85.2,21.5,86,21.8,87,21.8L87,21.8z M88.1,16.9c0-0.8-0.1-1.4-0.4-1.9c-0.3-0.5-0.8-0.7-1.6-0.7
			c-0.7,0-1.2,0.2-1.6,0.7c-0.4,0.5-0.6,1.1-0.6,1.9H88.1L88.1,16.9z M96.7,13.6c0.1-0.1,0.2-0.3,0.4-0.5c0.2-0.2,0.4-0.3,0.6-0.5
			c0.2-0.1,0.5-0.3,0.8-0.4c0.3-0.1,0.6-0.1,0.9-0.1c0.2,0,0.4,0,0.6,0c0.2,0,0.4,0.1,0.6,0.2c0.2,0.1,0.3,0.2,0.4,0.4
			c0.1,0.1,0.2,0.3,0.2,0.6c0,0.3-0.1,0.7-0.3,1.2c-0.2,0.5-0.3,0.8-0.5,1.2c-0.3-0.2-0.5-0.4-0.8-0.5c-0.3-0.1-0.6-0.2-1-0.2
			c-0.5,0-0.9,0.1-1.2,0.4c-0.3,0.3-0.5,0.6-0.5,1v7.7h-3.3V12.5c0.1,0,0.2,0,0.3,0c0.1,0,0.2,0,0.3,0c0.1,0,0.3,0,0.5,0
			c0.5,0,1,0.1,1.3,0.3C96.4,12.9,96.6,13.2,96.7,13.6L96.7,13.6z M105.9,13.6c0.1-0.1,0.2-0.3,0.4-0.5c0.2-0.2,0.4-0.3,0.6-0.5
			c0.2-0.1,0.5-0.3,0.8-0.4c0.3-0.1,0.6-0.1,0.9-0.1c0.2,0,0.4,0,0.6,0c0.2,0,0.4,0.1,0.6,0.2c0.2,0.1,0.3,0.2,0.4,0.4
			c0.1,0.1,0.2,0.3,0.2,0.6c0,0.3-0.1,0.7-0.3,1.2c-0.2,0.5-0.4,0.8-0.5,1.2c-0.3-0.2-0.5-0.4-0.8-0.5c-0.3-0.1-0.6-0.2-1-0.2
			c-0.5,0-0.9,0.1-1.2,0.4c-0.3,0.3-0.5,0.6-0.5,1v7.7h-3.3V12.5c0.1,0,0.2,0,0.3,0c0.1,0,0.2,0,0.3,0c0.1,0,0.3,0,0.5,0
			c0.5,0,1,0.1,1.3,0.3C105.6,12.9,105.8,13.2,105.9,13.6L105.9,13.6z M121.5,21c0,1.3,0.2,2.2,0.6,2.7c-0.3,0.1-0.6,0.2-0.8,0.2
			c-0.2,0-0.5,0.1-0.8,0.1c-0.6,0-1-0.1-1.3-0.3c-0.3-0.2-0.5-0.5-0.6-1c-0.3,0.4-0.8,0.7-1.4,0.9c-0.6,0.3-1.3,0.4-2.1,0.4
			c-0.4,0-0.9-0.1-1.3-0.2c-0.4-0.1-0.8-0.3-1.2-0.6c-0.3-0.3-0.6-0.6-0.9-1.1c-0.2-0.5-0.3-1-0.3-1.7c0-0.8,0.2-1.5,0.6-2
			c0.4-0.5,0.9-0.9,1.5-1.2c0.6-0.3,1.2-0.5,1.9-0.6c0.7-0.1,1.3-0.2,1.9-0.2c0.2,0,0.4,0,0.6,0h0.5v-0.4c0-0.6-0.2-1-0.5-1.3
			c-0.3-0.3-0.9-0.4-1.6-0.4c-0.7,0-1.3,0.1-1.8,0.3c-0.5,0.2-1.1,0.5-1.6,0.8c-0.2-0.3-0.4-0.6-0.5-0.9c-0.1-0.3-0.2-0.6-0.2-0.7
			c0-0.2,0.1-0.4,0.4-0.6c0.2-0.2,0.6-0.4,1-0.6c0.4-0.2,0.9-0.3,1.5-0.4c0.6-0.1,1.1-0.2,1.8-0.2c0.9,0,1.6,0.1,2.2,0.3
			c0.6,0.2,1.1,0.4,1.5,0.8c0.4,0.4,0.6,0.8,0.8,1.4c0.2,0.6,0.2,1.2,0.2,1.9V21L121.5,21z M118.4,18.3h-0.3c-0.1,0-0.2,0-0.3,0
			c-0.4,0-0.8,0.1-1.2,0.1c-0.4,0.1-0.7,0.2-1,0.3c-0.3,0.2-0.5,0.4-0.7,0.6c-0.2,0.3-0.3,0.6-0.3,1c0,0.4,0.1,0.8,0.4,1.1
			c0.3,0.3,0.7,0.5,1.3,0.5c0.3,0,0.6,0,0.9-0.1c0.3-0.1,0.5-0.2,0.7-0.3c0.2-0.1,0.4-0.3,0.5-0.4c0.1-0.1,0.2-0.3,0.2-0.4V18.3z"/>
	</g>
</g>
<g>
	<path d="M175.4,13.4c0,0.2,0,0.6-0.1,1c-0.2,0.7-1,1-1.6,0.5c-0.3-0.2-0.6-0.5-0.8-0.9c-1.7-2.8-3.5-5.6-5.2-8.4
		c-0.1-0.2-0.3-0.5-0.4-0.7c-0.2-0.4-0.2-0.8,0.1-1.2c0.2-0.2,0.5-0.4,0.8-0.5c0.9-0.4,1.8-0.7,2.7-1c0.7-0.2,1.5-0.4,2.3-0.4
		c0.3,0,0.6,0,0.8,0c0.4,0.1,0.7,0.4,0.7,0.8c0.1,1.2,0.2,2.3,0.3,3.5c0.1,1.6,0.2,3.3,0.3,4.9C175.4,11.9,175.4,12.6,175.4,13.4z"
		/>
	<path d="M177.5,21.2c0-0.8,0.6-1.4,1.3-1.3c0.3,0,0.5,0.1,0.8,0.2c1.6,0.5,3.3,1.1,4.9,1.6c0.2,0.1,0.3,0.1,0.5,0.2
		c0.5,0.2,0.8,0.7,0.7,1.2c-0.1,0.3-0.2,0.6-0.4,0.9c-0.7,1.2-1.5,2.2-2.5,3.1c-0.2,0.2-0.4,0.3-0.7,0.4c-0.5,0.2-0.8,0.1-1.1-0.4
		c-0.5-0.7-0.9-1.5-1.4-2.2c-0.7-1.1-1.3-2.1-2-3.2C177.6,21.6,177.5,21.4,177.5,21.2z"/>
	<path d="M165.1,19c0-0.9,0.1-1.7,0.3-2.6c0.1-0.3,0.2-0.5,0.3-0.7c0.3-0.4,0.7-0.5,1.1-0.4c0.9,0.3,1.8,0.7,2.8,1.1
		c1,0.4,2.1,0.9,3.1,1.3c0.9,0.4,1,1.4,0.6,1.9c-0.2,0.2-0.4,0.4-0.7,0.5c-1.9,0.7-3.9,1.2-5.8,1.8c-0.1,0-0.2,0-0.3,0.1
		c-0.5,0.1-0.9-0.2-1.1-0.7c-0.1-0.4-0.2-0.8-0.2-1.2C165.1,19.7,165.1,19.3,165.1,19z"/>
	<path d="M175.5,25.3c0,1.3,0,2.4,0,3.5c0,0.5-0.4,0.9-0.8,0.9c-0.4,0.1-0.7,0-1.1-0.1c-1.3-0.3-2.5-0.7-3.6-1.4
		c-0.3-0.2-0.6-0.4-0.8-0.7c-0.2-0.3-0.1-0.6,0.1-0.9c0.4-0.5,0.8-1,1.2-1.5c0.6-0.7,1.2-1.4,1.7-2c0.4-0.4,0.8-0.9,1.1-1.4
		c0.3-0.4,0.8-0.6,1.3-0.5c0.5,0.1,0.8,0.4,0.9,0.8c0,0.1,0,0.1,0,0.2C175.5,23.4,175.5,24.5,175.5,25.3z"/>
	<path d="M182.3,10.4c0.3,0,0.6,0.1,0.8,0.3c0.5,0.5,1,1,1.4,1.6c0.5,0.7,0.9,1.4,1.2,2.1c0.1,0.3,0.2,0.6,0.2,0.9
		c-0.1,0.4-0.3,0.6-0.6,0.8c-0.6,0.2-1.1,0.3-1.7,0.4c-1.5,0.4-3,0.7-4.5,1.1c-0.3,0.1-0.7,0.1-1-0.2c-0.3-0.2-0.5-0.5-0.5-0.9
		c0-0.3,0-0.5,0.2-0.7c0.7-1,1.5-2,2.2-3c0.5-0.7,0.9-1.3,1.4-2c0.1-0.2,0.3-0.3,0.4-0.4C181.9,10.4,182.1,10.4,182.3,10.4z"/>
</g>
</svg>
